<svg width="100" height="32" viewBox="0 0 67.4 28" fill="none" xmlns="http://www.w3.org/2000/svg" aria-label="Ecavo Logo"><path d="M3.84 24.0Q2.71 24.0 2.12 23.41Q1.54 22.82 1.54 21.72V9.36Q1.54 8.26 2.12 7.67Q2.71 7.08 3.84 7.08H11.98Q12.84 7.08 13.27 7.51Q13.7 7.94 13.7 8.76Q13.7 9.6 13.27 10.04Q12.84 10.49 11.98 10.49H5.76V13.7H11.45Q12.29 13.7 12.73 14.14Q13.18 14.57 13.18 15.41Q13.18 16.25 12.73 16.68Q12.29 17.11 11.45 17.11H5.76V20.59H11.98Q12.84 20.59 13.27 21.04Q13.7 21.48 13.7 22.3Q13.7 23.14 13.27 23.57Q12.84 24.0 11.98 24.0Z M22.01 24.26Q20.02 24.26 18.54 23.52Q17.06 22.78 16.25 21.37Q15.43 19.97 15.43 18.07Q15.43 16.63 15.89 15.49Q16.34 14.35 17.22 13.56Q18.1 12.77 19.31 12.35Q20.52 11.93 22.01 11.93Q22.7 11.93 23.47 12.06Q24.24 12.19 25.06 12.55Q25.63 12.77 25.86 13.21Q26.09 13.66 26.05 14.16Q26.02 14.66 25.76 15.07Q25.51 15.48 25.07 15.62Q24.62 15.77 24.07 15.5Q23.69 15.31 23.27 15.23Q22.85 15.14 22.46 15.14Q21.82 15.14 21.32 15.34Q20.83 15.53 20.5 15.9Q20.16 16.27 19.98 16.82Q19.8 17.38 19.8 18.07Q19.8 19.46 20.5 20.26Q21.19 21.05 22.46 21.05Q22.85 21.05 23.26 20.96Q23.66 20.88 24.07 20.69Q24.62 20.42 25.06 20.58Q25.49 20.74 25.75 21.14Q26.02 21.55 26.04 22.04Q26.06 22.54 25.82 22.98Q25.58 23.42 25.01 23.64Q24.22 24.0 23.46 24.13Q22.7 24.26 22.01 24.26Z M31.7 24.26Q30.34 24.26 29.29 23.76Q28.25 23.26 27.66 22.38Q27.07 21.5 27.07 20.38Q27.07 19.08 27.74 18.34Q28.42 17.59 29.9 17.27Q31.39 16.94 33.86 16.94H35.18V18.96H33.86Q32.93 18.96 32.32 19.09Q31.7 19.22 31.42 19.5Q31.13 19.78 31.13 20.21Q31.13 20.76 31.52 21.12Q31.92 21.48 32.66 21.48Q33.26 21.48 33.73 21.22Q34.2 20.95 34.49 20.48Q34.78 20.02 34.78 19.39V16.61Q34.78 15.74 34.33 15.38Q33.89 15.02 32.81 15.02Q32.23 15.02 31.51 15.16Q30.79 15.29 29.9 15.62Q29.26 15.86 28.8 15.7Q28.34 15.53 28.09 15.12Q27.84 14.71 27.85 14.23Q27.86 13.75 28.16 13.32Q28.46 12.89 29.09 12.65Q30.24 12.22 31.21 12.07Q32.18 11.93 33.0 11.93Q34.97 11.93 36.25 12.49Q37.54 13.06 38.17 14.22Q38.81 15.38 38.81 17.21V22.06Q38.81 23.11 38.3 23.66Q37.8 24.22 36.84 24.22Q35.86 24.22 35.34 23.66Q34.82 23.11 34.82 22.06V21.43L34.97 21.77Q34.85 22.54 34.42 23.09Q33.98 23.64 33.29 23.95Q32.59 24.26 31.7 24.26Z M46.46 24.22Q45.62 24.22 45.04 23.8Q44.45 23.38 44.06 22.54L40.63 14.69Q40.34 13.97 40.44 13.34Q40.54 12.72 41.05 12.35Q41.57 11.98 42.48 11.98Q43.25 11.98 43.72 12.32Q44.18 12.67 44.57 13.68L46.99 19.92H46.18L48.72 13.66Q49.1 12.67 49.58 12.32Q50.06 11.98 50.9 11.98Q51.62 11.98 52.07 12.35Q52.51 12.72 52.61 13.34Q52.7 13.97 52.37 14.69L48.86 22.56Q48.5 23.4 47.92 23.81Q47.33 24.22 46.46 24.22Z M60.22 24.26Q58.25 24.26 56.78 23.52Q55.32 22.78 54.5 21.38Q53.69 19.99 53.69 18.1Q53.69 16.66 54.14 15.52Q54.6 14.38 55.46 13.57Q56.33 12.77 57.53 12.35Q58.73 11.93 60.22 11.93Q62.18 11.93 63.65 12.67Q65.11 13.42 65.92 14.8Q66.72 16.18 66.72 18.1Q66.72 19.51 66.26 20.66Q65.81 21.82 64.96 22.62Q64.1 23.42 62.89 23.84Q61.68 24.26 60.22 24.26ZM60.22 21.12Q60.86 21.12 61.37 20.8Q61.87 20.47 62.15 19.81Q62.42 19.15 62.42 18.1Q62.42 16.49 61.8 15.78Q61.18 15.07 60.22 15.07Q59.57 15.07 59.06 15.38Q58.56 15.7 58.27 16.36Q57.98 17.02 57.98 18.1Q57.98 19.68 58.61 20.4Q59.23 21.12 60.22 21.12Z" fill="#FAF5E8"></path></svg>